<?xml version="1.0" encoding="UTF-8"?>
<svg width="341px" height="471px" viewBox="0 0 341 471" version="1.1" xmlns="http://www.w3.org/2000/svg" xmlns:xlink="http://www.w3.org/1999/xlink">
    <title>Path 3 Copy</title>
    <g id="Page-1" stroke="none" stroke-width="1" fill="none" fill-rule="evenodd" opacity="0.560812144">
        <g id="Artboard" transform="translate(-897.000000, -156.000000)" stroke="#FF116D" stroke-width="2">
            <path d="M1108.93509,443.279015 C1048.50643,443.279015 1055.40969,452.405874 1012.44545,428.006429 C998.467665,420.068429 992.586958,397.454465 991.870552,383.009186 C990.978796,365.028234 989.55301,346.843334 991.946397,329.000083 C995.021164,306.076996 1041.11167,283.637585 1062.21408,280.679415 C1070.70181,279.489592 1079.34384,279.615536 1087.91202,279.824426 C1090.16004,279.879233 1092.50788,280.341348 1094.45544,281.465454 C1097.6344,283.300307 1096.13143,289.428948 1092.88336,296.455341 C1080.68207,322.849847 1068.10028,337.397585 1066.06843,368.777756 C1064.99443,385.364744 1065.64163,402.026679 1066.06843,418.642921 C1066.18928,423.348122 1066.89467,428.031804 1067.70945,432.667498 C1068.54067,437.396695 1069.44745,442.147764 1070.9984,446.692075 C1083.90752,484.515985 1123.09246,495.430379 1158.46929,501.514797 C1175.74146,504.485415 1193.29594,505.620577 1210.56846,508.589141 C1214.06141,509.189461 1217.67487,510.148594 1220.57321,512.188369 C1221.72531,512.999189 1222.32803,515.142611 1221.53163,516.304727 C1216.66159,523.411108 1192.83548,540.817986 1189.11099,543.057608 C1136.61631,574.623897 1060.29572,621.057687 997.517616,588.737463 C967.059699,573.056731 946.759987,535.71812 959.946366,500.825289 C964.436482,488.943872 986.595743,470.136806 999.069007,462.812755 C1048.39411,433.850044 1107.78059,435.854734 1158.06248,410.727377 C1189.13011,395.201964 1196.25786,362.967847 1197.47472,331.220297 C1197.72234,324.759761 1199.86431,317.831926 1197.47472,311.824458 C1190.29089,293.764221 1180.31475,276.804239 1169.42556,260.70439 C1152.0222,234.973235 1122.9219,210.935607 1095.60692,196.40784 C1065.88495,180.599892 1040.49845,180.978499 1006.30194,182.562534 C981.828606,183.696176 969.400419,197.205367 967.724008,220.650914 C967.251326,227.26164 967.1964,237.202202 970.316555,243.49429 C974.556198,252.043932 982.775919,260.645516 992.2222,263.683062 C995.65073,264.78554 1001.19483,268.533001 1002.89577,265.358564 C1006.97775,257.740475 1003.16852,247.938836 1005.16425,239.529623 C1012.84023,207.186059 1026.82398,191.093056 1053.45044,173.743736 C1056.40686,171.817387 1059.60457,170.221943 1062.91738,169.006822 C1072.20262,165.601046 1081.64653,162.617148 1091.1596,159.912221 C1094.5527,158.947431 1098.04613,158.151051 1101.57115,158.016076 C1122.87746,157.20025 1144.20908,156.842786 1165.52985,157.064556 C1168.13605,157.091665 1170.78025,157.703855 1173.16269,158.760744 C1211.12242,175.600279 1243.76267,203.121711 1235.79064,249.499898 C1235.1067,253.478739 1229.07938,263.14941 1225.21359,266.241134 C1193.79925,291.365263 1165.46327,311.277416 1126.48305,322.346338 C1105.79395,328.221269 1084.37602,331.146795 1063.41382,335.957211 C1061.17172,336.471731 1058.83768,337.029539 1056.92556,338.308431 C1055.52635,339.244277 1054.65559,340.842214 1053.87794,342.335154 C1053.22732,343.584216 1052.75298,344.988573 1052.71267,346.396351 C1052.36315,358.604821 1052.31174,370.829877 1052.71267,383.036766 C1053.93405,420.223102 1065.2743,468.443761 1088.42225,498.632656 C1098.07331,511.219292 1110.49896,521.414509 1121.31175,533.018383 C1122.82107,534.638133 1124.30099,536.338372 1125.36605,538.279323 C1126.56361,540.461731 1127.62655,542.800258 1128.02755,545.257136 C1128.52846,548.326205 1129.41717,551.804254 1128.02755,554.586169 C1124.44508,561.758008 1118.94877,567.841817 1113.71338,573.913058 C1105.43625,583.511647 1096.52579,592.554959 1087.56037,601.514033 C1083.52701,605.544536 1079.31864,609.43862 1074.74932,612.849532 C1070.30237,616.169105 1065.60573,619.222857 1060.60753,621.633854 C1057.32002,623.219658 1053.73038,624.302175 1050.10633,624.736637 C1046.55299,625.162623 1042.54097,625.864673 1039.3845,624.178136 C1016.29177,611.839457 1025.65501,559.869777 1025.85636,548.835679 C1026.73007,500.956434 1065.31009,454.059277 1114.93381,452.235714 C1115.3702,452.219677 1107.39749,457.903463 1107.39749,457.903463 C1101.37489,460.973491 1095.49334,464.43265 1089.12555,466.701576 C1080.39517,469.812323 1071.46498,472.666437 1062.28993,473.975877 C1052.52095,475.370082 1042.56417,474.717744 1032.69628,474.75502 C1031.58745,474.759209 1030.35787,474.714516 1029.43491,474.099989 C1025.76044,471.653464 1022.00284,469.121409 1019.16125,465.743161 C1013.26353,458.731606 1007.60535,451.357082 1003.44048,443.196274 C998.69267,433.893227 995.680028,423.775075 992.6428,413.781894 C990.867785,407.941688 989.244905,401.927794 989.043572,395.827126 C988.356513,375.008364 988.67037,354.132346 989.988197,333.343979 C990.192057,330.128137 992.011438,327.184882 993.573634,324.366595 C998.490767,315.495821 1003.85149,306.870332 1009.37714,298.365276 C1011.33757,295.347801 1013.34161,292.264498 1016.00331,289.842967 C1023.22747,283.270629 1030.28782,276.183392 1038.87426,271.529654 C1046.72205,267.276253 1055.68595,265.290731 1064.44808,263.586531 C1069.44305,262.61503 1074.67197,262.89825 1079.71377,263.586531 C1101.77664,266.598442 1132.38111,283.073653 1124.58001,311.58313 C1123.51656,315.469578 1120.44431,318.536683 1117.878,321.643041 C1091.99242,352.975908 1067.07403,375.369846 1025.18065,378.099894 C1024.84914,378.121498 1003.14477,380.2848 996.04207,376.596769 C952.14298,353.80245 953.817552,310.977118 950.77592,264.669057 C949.659696,247.674847 949.564105,230.564232 950.77592,213.57657 C951.57372,202.392717 956.898316,191.691887 956.781528,180.480222 C956.759479,178.36355 952.471153,179.915208 950.431166,180.480222 C948.525404,181.008061 946.948724,182.395793 945.404658,183.63127 C911.844315,210.484441 959.069689,282.823257 974.522549,306.073967 C977.73947,310.914217 997.509312,339.62522 1009.5702,349.850783 C1064.27368,396.229932 1114.66169,426.525568 1119.26391,502.969657 C1119.7947,511.786281 1120.89529,520.786798 1119.26391,529.46742 C1116.70792,543.067932 1103.02284,565.67546 1095.31732,576.167746 C1075.02606,603.797514 1052.83883,626.167275 1017.03757,623.605845 C1015.2206,623.475849 1013.24479,623.19036 1011.78352,622.102719 C983.236465,600.854774 973.583171,570.652708 962.635444,537.55534 C957.768005,522.840008 944.569046,474.191495 941.405516,456.427918 C932.071046,404.013822 942.820829,449.071815 937.558066,403.577187 C935.950545,389.680767 932.134889,376.086013 930.752629,362.165382 C929.024245,344.758964 931.965393,290.109217 954.60958,282.554875 C966.493296,278.590341 970.522695,281.060952 978.569957,287.75376 C981.073983,289.836328 988.718706,294.820733 985.465029,294.676413 C966.807397,293.848831 930.129958,288.992136 912.480687,273.791238 C901.464989,264.303679 894.14992,242.784947 900.159193,229.062903 C904.640608,218.829688 928.9843,220.925121 935.972199,224.850014 C944.367512,229.565407 948.230791,242.321887 954.471678,247.665808 C964.95984,256.646569 977.469044,262.954482 988.967726,270.598819" id="Path-3-Copy"></path>
        </g>
    </g>
</svg>