<?xml version="1.0" encoding="UTF-8"?>
<svg width="142px" height="205px" viewBox="0 0 142 205" version="1.1" xmlns="http://www.w3.org/2000/svg" xmlns:xlink="http://www.w3.org/1999/xlink">
    <title>Group 5 Copy 2</title>
    <g id="Page-1" stroke="none" stroke-width="1" fill="none" fill-rule="evenodd">
        <g id="Artboard" transform="translate(-996.000000, -113.000000)" stroke="#FF116D">
            <g id="Group-5-Copy-2" transform="translate(996.000000, 113.000000)">
                <g id="Group-3">
                    <line x1="0" y1="5" x2="10" y2="5" id="Path-6"></line>
                    <line x1="5" y1="0" x2="5" y2="10" id="Path-6-Copy"></line>
                </g>
                <g id="Group-3-Copy-3" transform="translate(0.000000, 65.000000)">
                    <line x1="0" y1="5" x2="10" y2="5" id="Path-6"></line>
                    <line x1="5" y1="0" x2="5" y2="10" id="Path-6-Copy"></line>
                </g>
                <g id="Group-3-Copy" transform="translate(66.000000, 0.000000)">
                    <line x1="0" y1="5" x2="10" y2="5" id="Path-6"></line>
                    <line x1="5" y1="0" x2="5" y2="10" id="Path-6-Copy"></line>
                </g>
                <g id="Group-3-Copy-4" transform="translate(66.000000, 65.000000)">
                    <line x1="0" y1="5" x2="10" y2="5" id="Path-6"></line>
                    <line x1="5" y1="0" x2="5" y2="10" id="Path-6-Copy"></line>
                </g>
                <g id="Group-3-Copy-2" transform="translate(132.000000, 0.000000)">
                    <line x1="0" y1="5" x2="10" y2="5" id="Path-6"></line>
                    <line x1="5" y1="0" x2="5" y2="10" id="Path-6-Copy"></line>
                </g>
                <g id="Group-3-Copy-5" transform="translate(132.000000, 65.000000)">
                    <line x1="0" y1="5" x2="10" y2="5" id="Path-6"></line>
                    <line x1="5" y1="0" x2="5" y2="10" id="Path-6-Copy"></line>
                </g>
                <g id="Group-3-Copy-8" transform="translate(0.000000, 130.000000)">
                    <line x1="0" y1="5" x2="10" y2="5" id="Path-6"></line>
                    <line x1="5" y1="0" x2="5" y2="10" id="Path-6-Copy"></line>
                </g>
                <g id="Group-3-Copy-7" transform="translate(66.000000, 130.000000)">
                    <line x1="0" y1="5" x2="10" y2="5" id="Path-6"></line>
                    <line x1="5" y1="0" x2="5" y2="10" id="Path-6-Copy"></line>
                </g>
                <g id="Group-3-Copy-6" transform="translate(132.000000, 130.000000)">
                    <line x1="0" y1="5" x2="10" y2="5" id="Path-6"></line>
                    <line x1="5" y1="0" x2="5" y2="10" id="Path-6-Copy"></line>
                </g>
                <g id="Group-3-Copy-11" transform="translate(0.000000, 195.000000)">
                    <line x1="0" y1="5" x2="10" y2="5" id="Path-6"></line>
                    <line x1="5" y1="0" x2="5" y2="10" id="Path-6-Copy"></line>
                </g>
                <g id="Group-3-Copy-10" transform="translate(66.000000, 195.000000)">
                    <line x1="0" y1="5" x2="10" y2="5" id="Path-6"></line>
                    <line x1="5" y1="0" x2="5" y2="10" id="Path-6-Copy"></line>
                </g>
                <g id="Group-3-Copy-9" transform="translate(132.000000, 195.000000)">
                    <line x1="0" y1="5" x2="10" y2="5" id="Path-6"></line>
                    <line x1="5" y1="0" x2="5" y2="10" id="Path-6-Copy"></line>
                </g>
            </g>
        </g>
    </g>
</svg>